<svg width="3302" height="1380" viewBox="0 0 3302 1380" fill="none" xmlns="http://www.w3.org/2000/svg">
<path d="M882.292 202.209C852.75 150.945 824.297 82.6436 775.217 46.777C748.151 26.998 729.168 25.3038 695.774 24.5725C617.541 22.8594 540.03 16.709 462.873 3.35485C410.448 -5.71876 368.783 36.7622 328.659 68.4881C243.455 135.858 181.234 241.698 137.207 339.383C108.605 402.843 88.5916 469.682 67.1389 535.77C47.4905 596.3 13.55 660.464 4.96627 723.768C-9.15112 827.884 21.0579 948.042 83.9157 1032.66C139.252 1107.15 239.279 1203.71 340.501 1196.48C426.202 1190.36 561.85 1120.53 589.192 1031.67C597.036 1006.18 610.785 869.456 634.094 877.226C666.327 887.97 700.374 888.326 734.262 885.615C742.251 884.976 814.954 863.576 814.691 864.89C787.719 999.75 793.474 1136.37 793.474 1274.93C793.474 1308.77 799.277 1293.05 809.264 1270C836.551 1207.03 891.942 1154.72 933.609 1101.25C969.225 1055.54 1006.21 1022.12 1048.09 981.834C1073.39 957.495 1106.57 925.684 1143.81 923.116C1150.19 922.676 1181.83 931.47 1173.42 928.543C1107.61 905.654 1068.99 867.015 1024.4 937.425C988.799 993.639 941.216 1054.54 914.858 1115.06C903.604 1140.91 905.497 1185.46 917.819 1210.79C953.193 1283.5 1101.43 1389.75 1165.52 1303.55C1252.36 1186.77 1329.07 995.125 1165.52 903.872C1111.9 873.95 1024.76 912.633 1001.7 969.005C967.263 1053.19 1142.59 1122.05 1200.06 1132.83C1282.02 1148.19 1372.81 1137.02 1434.94 1079.53C1591.46 934.696 1739.61 738.587 1756.66 517.02C1758.74 489.942 1726.29 321.4 1685.6 376.884C1648.77 427.106 1628.98 499.207 1607.64 556.494C1577.18 638.283 1551.81 723.194 1544.97 810.613C1536.48 919.122 1538.83 1028.98 1539.55 1137.76C1540.02 1209.72 1537.63 1289.25 1580.99 1350.92C1667.47 1473.91 1865.04 1148.98 1858.8 1055.36C1850.97 937.886 1700.3 1032.15 1801.56 1102.73C1849.3 1136 1898.07 1131.62 1944.16 1101.25C2045.61 1034.38 2156.99 983.214 2255.02 910.78C2354.91 836.98 2401.4 732.171 2452.4 622.614C2473.04 578.272 2568.91 422.403 2468.68 406.984C2426.18 400.445 2391.95 458.726 2376.41 488.4C2340.7 556.572 2306.42 627.568 2276.74 698.603C2254.92 750.805 2246.92 806.952 2226.41 859.463C2194.94 940.017 2124.5 1022.88 2118.34 1112.1C2115.98 1146.43 2139.02 1168.17 2163.25 1188.09C2195.19 1214.35 2233.21 1268.03 2278.71 1268.03C2320.4 1268.03 2353.19 1232.16 2378.38 1203.88C2435.87 1139.34 2530.45 1072.53 2534.31 977.887C2536.06 934.907 2532.35 928.389 2523.45 971.966C2515.95 1008.72 2511.03 1046.21 2497.79 1081.51C2485.88 1113.29 2465.85 1144.65 2463.25 1179.21C2460.2 1219.94 2492.32 1214.67 2525.43 1221.64C2579.51 1233.03 2618.25 1202.37 2653.72 1166.38C2716.47 1102.71 2755.34 1021.09 2809.64 950.255C2823.51 932.173 2832.49 962.197 2835.8 972.952C2858.68 1047.32 2845.17 1138.33 2845.17 1214.74C2845.17 1219.59 2840.1 1332.21 2852.08 1303.55C2902.76 1182.29 2925.98 1043.8 2994.19 930.517C3022.84 882.943 3058.46 874.04 3081.03 934.465C3112.31 1018.17 3084.98 1113.81 3084.98 1199.93C3084.98 1238.33 3108.48 1233.59 3140.25 1232.5C3172.78 1231.38 3320.41 1094.89 3298.14 1072.63" stroke="black" stroke-width="10" stroke-linecap="round"/>
</svg>
